<?xml version="1.0" encoding="UTF-8" standalone="no"?>
<svg
   xmlns:dc="http://purl.org/dc/elements/1.1/"
   xmlns:cc="http://creativecommons.org/ns#"
   xmlns:rdf="http://www.w3.org/1999/02/22-rdf-syntax-ns#"
   xmlns:svg="http://www.w3.org/2000/svg"
   xmlns="http://www.w3.org/2000/svg"
   xmlns:sodipodi="http://sodipodi.sourceforge.net/DTD/sodipodi-0.dtd"
   xmlns:inkscape="http://www.inkscape.org/namespaces/inkscape"
   width="61.495724mm"
   height="20.527449mm"
   viewBox="0 0 61.495724 20.527449"
   version="1.1"
   id="svg13143"
   inkscape:version="1.0.1 (3bc2e813f5, 2020-09-07)"
   sodipodi:docname="Logo Mines ParisTech.svg">
  <defs
     id="defs13137">
    <clipPath
       clipPathUnits="userSpaceOnUse"
       id="clipPath12378">
      <path
         d="m 209.023,754.989 h 174.529 v 58.23 H 209.023 Z"
         id="path12376" />
    </clipPath>
  </defs>
  <sodipodi:namedview
     id="base"
     pagecolor="#ffffff"
     bordercolor="#666666"
     borderopacity="1.0"
     inkscape:pageopacity="0.0"
     inkscape:pageshadow="2"
     inkscape:zoom="1.979899"
     inkscape:cx="52.402588"
     inkscape:cy="-0.35178652"
     inkscape:document-units="mm"
     inkscape:current-layer="layer1"
     inkscape:document-rotation="0"
     showgrid="false"
     fit-margin-top="0"
     fit-margin-left="0"
     fit-margin-right="0"
     fit-margin-bottom="0"
     inkscape:window-width="1600"
     inkscape:window-height="837"
     inkscape:window-x="-8"
     inkscape:window-y="-8"
     inkscape:window-maximized="1" />
  <metadata
     id="metadata13140">
    <rdf:RDF>
      <cc:Work
         rdf:about="">
        <dc:format>image/svg+xml</dc:format>
        <dc:type
           rdf:resource="http://purl.org/dc/dcmitype/StillImage" />
        <dc:title></dc:title>
      </cc:Work>
    </rdf:RDF>
  </metadata>
  <g
     inkscape:label="Calque 1"
     inkscape:groupmode="layer"
     id="layer1"
     transform="translate(-103.05571,-97.837382)">
    <g
       id="g18038">
      <g
         id="g16763"
         style="fill:#1e4697;fill-opacity:1">
        <path
           d="m 157.42571,104.59591 3.33587,3.33763 0.0134,-0.013 -3.33692,-3.33728 z"
           style="fill:#1e4697;fill-opacity:1;fill-rule:nonzero;stroke:none;stroke-width:0.352778"
           id="path12366" />
        <path
           d="m 157.43323,108.13332 v 0.0183 l 3.3595,-0.004 v -0.0183 z"
           style="fill:#1e4697;fill-opacity:1;fill-rule:nonzero;stroke:none;stroke-width:0.352778"
           id="path12370" />
        <g
           id="g12380"
           transform="matrix(0.35277777,0,0,-0.35277777,158.90046,110.97983)"
           style="fill:#1e4697;fill-opacity:1">
          <path
             d="m 0,0 c -0.167,-0.558 -0.258,-1.149 -0.258,-1.761 0,-0.082 0.003,-0.165 0.006,-0.246 h 0.102 c -0.004,0.081 -0.005,0.164 -0.005,0.246 0,0.586 0.083,1.153 0.238,1.69"
             style="fill:#1e4697;fill-opacity:1;fill-rule:nonzero;stroke:none"
             id="path12382" />
        </g>
        <g
           id="g12384"
           transform="matrix(0.35277777,0,0,-0.35277777,163.00694,111.00488)"
           style="fill:#1e4697;fill-opacity:1">
          <path
             d="m 0,0 c 0.155,-0.537 0.24,-1.104 0.24,-1.69 0,-0.083 -0.004,-0.164 -0.007,-0.246 h 0.101 c 0.004,0.082 0.007,0.163 0.007,0.246 0,0.593 -0.085,1.168 -0.239,1.709"
             style="fill:#1e4697;fill-opacity:1;fill-rule:nonzero;stroke:none"
             id="path12386" />
        </g>
        <g
           id="g12388"
           transform="matrix(0.35277777,0,0,-0.35277777,157.43813,111.6929)"
           style="fill:#1e4697;fill-opacity:1">
          <path
             d="M 0,0 -0.035,0.036 9.685,9.759 9.723,9.723 Z"
             style="fill:#1e4697;fill-opacity:1;fill-rule:nonzero;stroke:none"
             id="path12390" />
        </g>
        <g
           id="g12392"
           transform="matrix(0.35277777,0,0,-0.35277777,164.49862,111.67121)"
           style="fill:#1e4697;fill-opacity:1">
          <path
             d="M 0,0 -8.941,8.941 -8.903,8.979 0.036,0.037 Z"
             style="fill:#1e4697;fill-opacity:1;fill-rule:nonzero;stroke:none"
             id="path12394" />
        </g>
        <g
           id="g12396"
           transform="matrix(0.35277777,0,0,-0.35277777,161.15514,108.1483)"
           style="fill:#1e4697;fill-opacity:1">
          <path
             d="m 0,0 9.559,-0.009 v 0.05 L 0,0.052 Z"
             style="fill:#1e4697;fill-opacity:1;fill-rule:nonzero;stroke:none"
             id="path12398" />
        </g>
        <path
           d="m 160.96651,111.68761 h 0.0183 v -2.2098 h -0.0183 z"
           style="fill:#1e4697;fill-opacity:1;fill-rule:nonzero;stroke:none;stroke-width:0.352778"
           id="path12400" />
        <path
           d="m 157.40945,111.7123 h 7.14198 v -7.14269 h -7.14198 z m 0.0621,-7.0813 h 7.01886 v 7.01957 h -7.01886 z"
           style="fill:#1e4697;fill-opacity:1;fill-rule:nonzero;stroke:none;stroke-width:0.352778"
           id="path12402" />
        <g
           id="g12404"
           transform="matrix(0.35277777,0,0,-0.35277777,160.97638,111.67685)"
           style="fill:#1e4697;fill-opacity:1">
          <path
             d="m 0,0 h -0.001 c -2.077,0 -4.077,0.638 -5.778,1.839 -2.186,1.546 -3.641,3.852 -4.097,6.491 -0.453,2.64 0.15,5.299 1.694,7.486 1.877,2.656 4.942,4.241 8.199,4.241 2.077,0 4.076,-0.637 5.778,-1.84 2.188,-1.546 3.643,-3.851 4.094,-6.49 C 10.344,9.088 9.743,6.429 8.197,4.241 6.321,1.587 3.255,0 0,0 m 0.017,19.882 c -3.2,0 -6.211,-1.559 -8.056,-4.167 C -9.558,13.566 -10.147,10.954 -9.701,8.36 -9.257,5.766 -7.829,3.502 -5.679,1.983 -4.006,0.8 -2.042,0.175 -0.001,0.175 H 0 c 3.198,0 6.209,1.558 8.052,4.166 1.521,2.151 2.112,4.762 1.665,7.356 -0.445,2.593 -1.873,4.859 -4.023,6.378 -1.673,1.182 -3.635,1.807 -5.677,1.807"
             style="fill:#1e4697;fill-opacity:1;fill-rule:nonzero;stroke:none"
             id="path12406" />
        </g>
        <g
           id="g12408"
           transform="matrix(0.35277777,0,0,-0.35277777,162.73287,106.41704)"
           style="fill:#1e4697;fill-opacity:1">
          <path
             d="m 0,0 c 1.527,0 2.892,-0.704 3.789,-1.804 h 0.13 C 3.004,-0.644 1.589,0.103 0,0.103 c -1.164,0 -2.232,-0.403 -3.081,-1.072 l 0.033,-0.104 C -2.212,-0.403 -1.154,0 0,0"
             style="fill:#1e4697;fill-opacity:1;fill-rule:nonzero;stroke:none"
             id="path12410" />
        </g>
        <g
           id="g12412"
           transform="matrix(0.35277777,0,0,-0.35277777,162.66891,109.898)"
           style="fill:#1e4697;fill-opacity:1">
          <path
             d="m 0,0 c 0.06,-0.002 0.121,-0.004 0.181,-0.004 2.75,0 4.988,2.236 4.988,4.986 0,1.057 -0.331,2.04 -0.898,2.847 L 4.19,7.769 C 4.742,6.978 5.067,6.018 5.067,4.982 5.067,2.289 2.876,0.097 0.181,0.097 0.109,0.097 0.039,0.1 -0.034,0.103"
             style="fill:#1e4697;fill-opacity:1;fill-rule:nonzero;stroke:none"
             id="path12414" />
        </g>
        <g
           id="g12416"
           transform="matrix(0.35277777,0,0,-0.35277777,164.29045,107.05352)"
           style="fill:#1e4697;fill-opacity:1">
          <path
             d="m 0,0 h -0.496 c 0.059,-0.076 0.116,-0.154 0.173,-0.234 z"
             style="fill:#1e4697;fill-opacity:1;fill-rule:nonzero;stroke:none"
             id="path12418" />
        </g>
        <g
           id="g12420"
           transform="matrix(0.35277777,0,0,-0.35277777,164.14705,107.15724)"
           style="fill:#1e4697;fill-opacity:1">
          <path
             d="M 0,0 0.081,0.06 C 0.026,0.139 -0.031,0.22 -0.09,0.294 H -0.22 C -0.142,0.2 -0.069,0.101 0,0"
             style="fill:#1e4697;fill-opacity:1;fill-rule:nonzero;stroke:none"
             id="path12422" />
        </g>
        <g
           id="g12424"
           transform="matrix(0.35277777,0,0,-0.35277777,162.66792,109.89631)"
           style="fill:#1e4697;fill-opacity:1">
          <path
             d="M 0,0 C -0.009,0.031 -0.021,0.061 -0.028,0.092 Z"
             style="fill:#1e4697;fill-opacity:1;fill-rule:nonzero;stroke:none"
             id="path12426" />
        </g>
        <g
           id="g12428"
           transform="matrix(0.35277777,0,0,-0.35277777,162.95536,110.75645)"
           style="fill:#1e4697;fill-opacity:1">
          <path
             d="M 0,0 -0.812,2.433 C -1.309,2.452 -1.786,2.543 -2.235,2.697 -1.252,2.037 -0.469,1.101 0,0"
             style="fill:#1e4697;fill-opacity:1;fill-rule:nonzero;stroke:none"
             id="path12430" />
        </g>
        <g
           id="g12432"
           transform="matrix(0.35277777,0,0,-0.35277777,161.73835,107.05352)"
           style="fill:#1e4697;fill-opacity:1">
          <path
             d="m 0,0 -0.229,0.731 c -1.118,-0.896 -1.836,-2.271 -1.836,-3.811 0,-2.621 2.077,-4.765 4.669,-4.88 L 1.37,-4.262 6.828,-0.294 C 6.758,-0.192 6.684,-0.094 6.608,0 Z"
             style="fill:#1e4697;fill-opacity:1;fill-rule:nonzero;stroke:none"
             id="path12434" />
        </g>
        <g
           id="g12436"
           transform="matrix(0.35277777,0,0,-0.35277777,160.9688,109.44207)"
           style="fill:#1e4697;fill-opacity:1">
          <path
             d="M 0,0 C 0.747,0 1.464,-0.135 2.126,-0.381 0.85,0.523 0.014,2.011 0.014,3.69 c 0,1.587 0.746,3.002 1.905,3.916 L 0.022,13.62 -2.17,6.771 H -9.324 L -3.538,2.54 -5.626,-3.71 C -4.69,-1.529 -2.524,0 0,0"
             style="fill:#1e4697;fill-opacity:1;fill-rule:nonzero;stroke:none"
             id="path12438" />
        </g>
        <g
           id="g12440"
           transform="matrix(0.35277777,0,0,-0.35277777,163.02087,110.95404)"
           style="fill:#1e4697;fill-opacity:1">
          <path
             d="m 0,0 -0.07,-0.05 c -0.757,2.452 -3.046,4.234 -5.746,4.234 -2.689,0 -4.967,-1.763 -5.739,-4.195 l -0.065,0.052 -0.049,-0.145 5.872,4.287 5.847,-4.327 z"
             style="fill:#1e4697;fill-opacity:1;fill-rule:nonzero;stroke:none"
             id="path12442" />
        </g>
        <g
           id="g12444"
           transform="matrix(0.35277777,0,0,-0.35277777,158.91443,110.93475)"
           style="fill:#1e4697;fill-opacity:1">
          <path
             d="M 0,0 0.021,-0.014 0.197,0.521 C 0.126,0.352 0.059,0.179 0,0"
             style="fill:#1e4697;fill-opacity:1;fill-rule:nonzero;stroke:none"
             id="path12446" />
        </g>
        <g
           id="g12448"
           transform="matrix(0.35277777,0,0,-0.35277777,163.02694,110.94967)"
           style="fill:#1e4697;fill-opacity:1">
          <path
             d="m 0,0 c -0.058,0.186 -0.127,0.368 -0.203,0.548 l 0.186,-0.56 z"
             style="fill:#1e4697;fill-opacity:1;fill-rule:nonzero;stroke:none"
             id="path12450" />
        </g>
        <g
           id="g12452"
           transform="matrix(0.35277777,0,0,-0.35277777,161.23571,107.86921)"
           style="fill:#1e4697;fill-opacity:1">
          <path
             d="M 0,0 0.037,-0.037 9.367,9.291 9.331,9.327 Z"
             style="fill:#1e4697;fill-opacity:1;fill-rule:nonzero;stroke:none"
             id="path12454" />
        </g>
        <g
           id="g12456"
           transform="matrix(0.35277777,0,0,-0.35277777,145.20246,106.63929)"
           style="fill:#1e4697;fill-opacity:1">
          <path
             d="m 0,0 c 0,-3.435 -2.423,-5.918 -6.316,-5.918 h -4.612 v -8.461 h -2.333 V 5.854 h 6.945 C -2.423,5.854 0,3.402 0,0 m -10.928,3.708 v -7.48 h 4.553 c 2.604,0 3.952,1.563 3.952,3.74 0,2.146 -1.348,3.74 -3.952,3.74 z"
             style="fill:#1e4697;fill-opacity:1;fill-rule:nonzero;stroke:none"
             id="path12458" />
        </g>
        <g
           id="g12460"
           transform="matrix(0.35277777,0,0,-0.35277777,150.48185,105.6665)"
           style="fill:#1e4697;fill-opacity:1">
          <path
             d="m 0,0 -1.706,-1.317 c -1.049,1.624 -2.727,2.543 -4.522,2.543 -1.826,0 -3.504,-0.949 -3.504,-2.942 0,-1.84 1.377,-2.514 3.175,-3.403 l 2.184,-1.074 c 2.876,-1.409 4.61,-2.911 4.61,-5.641 0,-3.402 -2.722,-5.64 -6.376,-5.64 -3.142,0 -5.748,1.686 -7.275,4.354 l 1.738,1.318 c 1.197,-1.87 2.963,-3.464 5.508,-3.464 2.334,0 3.983,1.318 3.983,3.371 0,1.871 -1.35,2.606 -3.296,3.557 l -2.215,1.073 c -2.305,1.134 -4.46,2.575 -4.46,5.426 0,3.218 2.753,5.273 5.958,5.273 C -3.505,3.434 -1.229,1.993 0,0"
             style="fill:#1e4697;fill-opacity:1;fill-rule:nonzero;stroke:none"
             id="path12462" />
        </g>
        <g
           id="g12464"
           transform="matrix(0.35277777,0,0,-0.35277777,152.02874,104.57423)"
           style="fill:#1e4697;fill-opacity:1">
          <path
             d="m 0,0 v -20.233 h 11.707 v 2.147 H 2.335 V 0 Z"
             style="fill:#1e4697;fill-opacity:1;fill-rule:nonzero;stroke:none"
             id="path12466" />
        </g>
      </g>
      <g
         id="g17375">
        <g
           id="g12504"
           transform="matrix(0.35277777,0,0,-0.35277777,106.40844,116.87161)">
          <path
             d="m 0,0 c 0.39,0 1.408,-0.089 2.111,0.027 2.204,0.368 3.341,1.084 3.341,2.657 0,1.574 -0.997,2.135 -4.029,2.135 h -2.791 v -8.902 c 0.218,0.014 0.451,0.032 0.684,0.032 0.218,0 0.435,-0.018 0.684,-0.032 z M 0,4.31 C 0.469,4.335 1.579,4.349 2.252,4.297 3.487,4.206 4.02,3.504 4.02,2.619 4.02,1.464 3.112,0.64 1.548,0.512 1.017,0.472 0.39,0.472 0,0.512 Z"
             style="fill:#918f90;fill-opacity:1;fill-rule:nonzero;stroke:none"
             id="path12506" />
        </g>
        <g
           id="g12508"
           transform="matrix(0.35277777,0,0,-0.35277777,109.72797,116.96524)">
          <path
             d="m 0,0 -0.252,-0.098 c -0.572,-0.225 -0.555,-0.196 -1.599,-0.421 -1.227,-0.266 -2.49,-0.419 -2.557,-1.822 -0.034,-0.884 0.892,-1.557 1.935,-1.613 1.026,-0.056 2.052,0.395 2.389,1.248 v -1.079 h 2.053 v 0.24 H 1.262 v 3.911 c 0,1.037 -0.184,2.003 -2.405,2.102 C -1.75,2.497 -1.658,2.441 -2.096,2.386 -2.601,2.315 -3.072,2.159 -3.407,2.033 V 0.155 h 0.301 l 0.371,0.785 c 0.32,0.674 0.363,1.402 1.457,1.303 C -0.184,2.146 0,1.543 0,0.899 Z m 0,-0.883 c 0,-0.362 0.017,-0.588 -0.034,-0.952 -0.117,-0.814 -0.757,-1.71 -1.817,-1.768 -0.891,-0.056 -1.312,0.645 -1.245,1.291 0.152,1.444 0.708,1.261 2.423,1.793 L 0,-0.308 Z"
             style="fill:#918f90;fill-opacity:1;fill-rule:nonzero;stroke:none"
             id="path12510" />
        </g>
        <g
           id="g12512"
           transform="matrix(0.35277777,0,0,-0.35277777,111.90683,118.30046)">
          <path
             d="m 0,0 h -3.046 v 0.24 h 0.758 V 5.847 H -3.08 V 6.1 h 1.968 V 4.823 c 0.085,0.461 0.791,1.318 1.902,1.318 0.32,0 0.605,-0.072 0.925,-0.21 V 3.716 H 1.395 L 0.991,4.739 C 0.705,5.456 0.486,5.917 0.049,5.708 -1.094,5.161 -0.993,3.844 -0.993,2.609 V 0.24 H 0 Z"
             style="fill:#918f90;fill-opacity:1;fill-rule:nonzero;stroke:none"
             id="path12514" />
        </g>
        <g
           id="g12516"
           transform="matrix(0.35277777,0,0,-0.35277777,113.5162,115.64934)">
          <path
             d="m 0,0 c 0,-0.393 -0.386,-0.673 -0.823,-0.673 -0.422,0 -0.81,0.308 -0.81,0.66 0,0.348 0.371,0.686 0.791,0.686 C -0.386,0.673 0,0.366 0,0 m -2.12,-7.515 v 0.24 h 0.775 v 5.607 h -0.724 v 0.253 h 2.035 v -5.86 h 0.691 v -0.24 z"
             style="fill:#918f90;fill-opacity:1;fill-rule:nonzero;stroke:none"
             id="path12518" />
        </g>
        <g
           id="g12520"
           transform="matrix(0.35277777,0,0,-0.35277777,115.60412,116.65327)">
          <path
             d="m 0,0 c -0.319,0.953 -0.639,1.332 -1.513,1.332 -0.758,0 -1.716,-0.252 -1.784,-1.025 -0.05,-0.688 0.808,-0.967 1.582,-1.177 1.312,-0.378 2.843,-0.771 2.791,-1.991 -0.034,-1.163 -1.193,-2.018 -2.775,-1.99 -0.908,0.013 -1.934,0.308 -2.287,0.518 v 2.004 h 0.303 l 0.353,-1.008 c 0.388,-1.136 0.824,-1.151 1.514,-1.206 0.959,-0.084 2.052,0.308 2.135,1.093 0.12,0.968 -1.428,1.22 -2.405,1.515 -0.689,0.211 -2.035,0.588 -2.035,1.738 0,1.345 1.749,1.795 2.674,1.795 0.775,0 1.664,-0.251 1.985,-0.42 V -0.66 H 0.217 Z"
             style="fill:#918f90;fill-opacity:1;fill-rule:nonzero;stroke:none"
             id="path12522" />
        </g>
        <path
           d="m 117.17073,118.32103 c -0.0878,-0.005 -0.16404,-0.007 -0.24059,-0.007 -0.0822,0 -0.16546,0.002 -0.2413,0.007 v -2.93158 c -0.55669,0 -0.89359,0.0275 -1.20686,0.055 0.006,-0.0455 0.0194,-0.0917 0.0194,-0.13688 0,-0.0451 -0.0138,-0.0861 -0.0194,-0.13617 h 2.84127 c -0.005,0.0501 -0.0131,0.091 -0.0131,0.13617 0,0.0452 0.008,0.0914 0.0131,0.13688 -0.27587,-0.0275 -0.66181,-0.055 -1.15252,-0.055 z"
           style="fill:#231f20;fill-opacity:1;fill-rule:nonzero;stroke:none;stroke-width:0.352778"
           id="path12526" />
        <path
           d="m 117.17073,118.32103 c -0.0878,-0.005 -0.16404,-0.007 -0.24059,-0.007 -0.0822,0 -0.16546,0.002 -0.2413,0.007 v -2.93158 c -0.55669,0 -0.89359,0.0275 -1.20686,0.055 0.006,-0.0455 0.0194,-0.0917 0.0194,-0.13688 0,-0.0451 -0.0138,-0.0861 -0.0194,-0.13617 h 2.84127 c -0.005,0.0501 -0.0131,0.091 -0.0131,0.13617 0,0.0452 0.008,0.0914 0.0131,0.13688 -0.27587,-0.0275 -0.66181,-0.055 -1.15252,-0.055 z"
           style="fill:#231f20;fill-opacity:1;fill-rule:nonzero;stroke:none;stroke-width:0.352778"
           id="path12530" />
        <path
           d="m 119.83251,117.49948 h -0.11254 l -0.006,0.0593 c -0.0296,0.29633 -0.27376,0.72178 -0.73625,0.69744 -0.52211,-0.0251 -0.635,-0.47978 -0.635,-0.99483 v -0.25154 h 1.48379 c 0.0529,-0.45543 -0.32738,-0.93521 -0.9204,-0.92992 -0.61101,0.01 -1.02623,0.51894 -1.06222,1.12219 -0.0353,0.65828 0.45685,1.16769 1.09855,1.15817 0.50342,-0.0106 0.84808,-0.381 0.88407,-0.79234 z m -1.44216,-0.85125 c 0.042,-0.23672 0.23143,-0.46461 0.49213,-0.47449 0.31468,-0.0145 0.43427,0.26247 0.44027,0.50941 l 0.005,0.23248 h -0.98461 z"
           style="fill:#231f20;fill-opacity:1;fill-rule:nonzero;stroke:none;stroke-width:0.352778"
           id="path12534" />
        <path
           d="m 119.83251,117.49948 h -0.11254 l -0.006,0.0593 c -0.0296,0.29633 -0.27376,0.72178 -0.73625,0.69744 -0.52211,-0.0251 -0.635,-0.47978 -0.635,-0.99483 v -0.25154 h 1.48379 c 0.0529,-0.45543 -0.32738,-0.93521 -0.9204,-0.92992 -0.61101,0.01 -1.02623,0.51894 -1.06222,1.12219 -0.0353,0.65828 0.45685,1.16769 1.09855,1.15817 0.50342,-0.0106 0.84808,-0.381 0.88407,-0.79234 z m -1.44216,-0.85125 c 0.042,-0.23672 0.23143,-0.46461 0.49213,-0.47449 0.31468,-0.0145 0.43427,0.26247 0.44027,0.50941 l 0.005,0.23248 h -0.98461 z"
           style="fill:#231f20;fill-opacity:1;fill-rule:nonzero;stroke:none;stroke-width:0.352778"
           id="path12538" />
        <path
           d="m 121.96082,116.96019 -0.0586,-0.17851 c -0.13123,-0.42968 -0.2854,-0.6223 -0.5581,-0.62794 -0.57643,-0.01 -0.67098,0.61348 -0.65898,1.08303 0.012,0.43568 0.0593,0.99448 0.66463,0.99977 0.35666,0.004 0.57609,-0.27728 0.63465,-0.57961 l 0.031,-0.15734 h 0.10583 l -0.0169,0.10865 c -0.0889,0.56833 -0.4632,0.74683 -0.87842,0.74154 -0.67098,-0.005 -1.05092,-0.58843 -1.05092,-1.14229 0,-0.57891 0.4452,-1.11796 1.13877,-1.143 0.1785,-0.004 0.48648,0.0102 0.75988,0.14358 v 0.75212 z"
           style="fill:#231f20;fill-opacity:1;fill-rule:nonzero;stroke:none;stroke-width:0.352778"
           id="path12542" />
        <path
           d="m 121.96082,116.96019 -0.0586,-0.17851 c -0.13123,-0.42968 -0.2854,-0.6223 -0.5581,-0.62794 -0.57643,-0.01 -0.67098,0.61348 -0.65898,1.08303 0.012,0.43568 0.0593,0.99448 0.66463,0.99977 0.35666,0.004 0.57609,-0.27728 0.63465,-0.57961 l 0.031,-0.15734 h 0.10583 l -0.0169,0.10865 c -0.0889,0.56833 -0.4632,0.74683 -0.87842,0.74154 -0.67098,-0.005 -1.05092,-0.58843 -1.05092,-1.14229 0,-0.57891 0.4452,-1.11796 1.13877,-1.143 0.1785,-0.004 0.48648,0.0102 0.75988,0.14358 v 0.75212 z"
           style="fill:#231f20;fill-opacity:1;fill-rule:nonzero;stroke:none;stroke-width:0.352778"
           id="path12546" />
        <path
           d="m 123.80596,118.30046 v -0.0847 h 0.31574 v -1.41887 c 0,-0.28187 0.005,-0.56409 -0.33938,-0.55386 -0.49847,0.0145 -0.56338,0.59831 -0.56338,1.03364 v 0.93909 h 0.33796 v 0.0847 h -1.03858 v -0.0847 h 0.25012 v -2.74425 h -0.2674 v -0.0889 h 0.7179 v 1.12253 c 0.0713,-0.18838 0.37359,-0.41557 0.69391,-0.39087 0.48154,0.0342 0.64735,0.20249 0.64735,0.65828 v 1.44321 h 0.26141 v 0.0847 z"
           style="fill:#231f20;fill-opacity:1;fill-rule:nonzero;stroke:none;stroke-width:0.352778"
           id="path12550" />
        <path
           d="m 123.80596,118.30046 v -0.0847 h 0.31574 v -1.41887 c 0,-0.28187 0.005,-0.56409 -0.33938,-0.55386 -0.49847,0.0145 -0.56338,0.59831 -0.56338,1.03364 v 0.93909 h 0.33796 v 0.0847 h -1.03858 v -0.0847 h 0.25012 v -2.74425 h -0.2674 v -0.0889 h 0.7179 v 1.12253 c 0.0713,-0.18838 0.37359,-0.41557 0.69391,-0.39087 0.48154,0.0342 0.64735,0.20249 0.64735,0.65828 v 1.44321 h 0.26141 v 0.0847 z"
           style="fill:#231f20;fill-opacity:1;fill-rule:nonzero;stroke:none;stroke-width:0.352778"
           id="path12554" />
      </g>
      <path
         d="m 126.4043,115.91315 1.46861,-1.07209 c -0.001,0 -0.003,-3.5e-4 -0.005,-3.5e-4 -0.67381,0 -1.24707,0.44732 -1.46403,1.07244"
         style="fill:#1e4697;fill-opacity:1;fill-rule:nonzero;stroke:none;stroke-width:0.352778"
         id="path12558" />
      <g
         id="g12468"
         transform="matrix(0.35277777,0,0,-0.35277777,119.82295,113.75316)"
         style="fill:#1e4697;fill-opacity:1">
        <path
           d="m 0,0 c 0.509,-0.836 1.094,-1.357 2.111,-1.357 1.058,0 1.817,0.872 1.817,1.906 0,2.425 -4.086,1.357 -4.086,4.305 0,1.682 1.331,2.504 2.897,2.504 0.625,0 1.382,-0.195 1.866,-0.626 C 4.448,6.393 4.357,6.027 4.253,5.663 H 4.121 C 3.847,6.367 3.273,6.799 2.505,6.799 1.603,6.799 0.859,6.198 0.859,5.271 0.859,2.872 4.97,3.837 4.97,1.058 c 0,-1.868 -1.45,-2.977 -3.223,-2.977 -0.639,0 -1.682,0.273 -2.128,0.757 0.131,0.377 0.197,0.771 0.248,1.162 z"
           style="fill:#1e4697;fill-opacity:1;fill-rule:nonzero;stroke:none"
           id="path12470" />
      </g>
      <g
         id="g12472"
         transform="matrix(0.35277777,0,0,-0.35277777,118.05712,112.59771)"
         style="fill:#1e4697;fill-opacity:1">
        <path
           d="M 0,0 H 2.022 C 2.416,0 2.793,0.052 3.183,0.064 3.172,-0.04 3.145,-0.158 3.145,-0.273 c 0,-0.106 0.027,-0.223 0.038,-0.368 -0.39,0.016 -0.767,0.066 -1.161,0.066 H 0 v -3.81 c 0.797,-0.027 1.581,0.026 2.363,0.052 0.404,0.013 0.797,0.051 1.2,0.118 C 3.55,-4.359 3.523,-4.477 3.523,-4.607 3.523,-4.736 3.55,-4.868 3.563,-5 H -1.148 V 3.888 H 3.484 C 3.473,3.744 3.445,3.628 3.445,3.497 3.445,3.365 3.473,3.235 3.484,3.105 3.095,3.183 2.701,3.221 2.312,3.248 L 1.005,3.276 H 0 Z"
           style="fill:#1e4697;fill-opacity:1;fill-rule:nonzero;stroke:none"
           id="path12474" />
      </g>
      <g
         id="g12476"
         transform="matrix(0.35277777,0,0,-0.35277777,113.33943,111.22628)"
         style="fill:#1e4697;fill-opacity:1">
        <path
           d="m 0,0 c 0.182,-0.013 0.379,-0.036 0.575,-0.036 0.184,0 0.366,0.023 0.576,0.036 v -8.922 c -0.21,0.01 -0.392,0.035 -0.576,0.035 -0.196,0 -0.393,-0.025 -0.575,-0.035 z"
           style="fill:#1e4697;fill-opacity:1;fill-rule:nonzero;stroke:none"
           id="path12478" />
      </g>
      <g
         id="g12480"
         transform="matrix(0.35277777,0,0,-0.35277777,117.05897,114.37387)"
         style="fill:#1e4697;fill-opacity:1">
        <path
           d="M 0,0 H -0.391 C -0.534,0.182 -0.796,0.494 -1.07,0.793 L -6.708,7.03 H -6.837 V 0 C -6.97,0.011 -7.084,0.034 -7.202,0.034 -7.333,0.034 -7.452,0.011 -7.568,0 v 8.922 h 0.509 l 6.199,-6.72 h 0.129 v 6.72 c 0.118,-0.013 0.235,-0.036 0.366,-0.036 0.115,0 0.235,0.023 0.365,0.036 z"
           style="fill:#1e4697;fill-opacity:1;fill-rule:nonzero;stroke:none"
           id="path12482" />
      </g>
      <g
         id="g12484"
         transform="matrix(0.35277777,0,0,-0.35277777,112.49689,111.22628)"
         style="fill:#1e4697;fill-opacity:1">
        <path
           d="m 0,0 c 0.34,-3.222 0.706,-6.434 1.059,-8.922 -0.236,0.01 -0.417,0.035 -0.614,0.035 -0.208,0 -0.418,-0.025 -0.613,-0.035 -0.222,2.622 -0.483,5.438 -0.665,6.731 -1.516,-2.703 -2.636,-4.79 -3.419,-6.59 h -0.144 l -0.717,1.473 c -0.836,1.724 -1.749,3.421 -2.636,5.117 -0.286,-2.546 -0.64,-5.129 -0.64,-6.731 -0.169,0.01 -0.312,0.035 -0.456,0.035 -0.17,0 -0.316,-0.025 -0.47,-0.035 0.338,2.097 1.123,7.551 1.253,8.922 h 0.34 c 1.042,-2.071 2.295,-4.528 3.691,-6.838 1.24,2.233 2.441,4.502 3.758,6.838 z"
           style="fill:#1e4697;fill-opacity:1;fill-rule:nonzero;stroke:none"
           id="path12486" />
      </g>
      <g
         id="g12488"
         transform="matrix(0.35277777,0,0,-0.35277777,115.911,103.89581)"
         style="fill:#1e4697;fill-opacity:1">
        <path
           d="M 0,0 11.601,10.095 25.432,17.043 14.024,7.404 c 0.244,-0.4 0.472,-0.81 0.678,-1.231 l 19.512,11 L 15.9,2.944 c 0.312,-1.242 0.476,-2.535 0.476,-3.867 0,-9.162 -7.818,-16.589 -17.462,-16.589 -3.104,0 -6.019,0.768 -8.544,2.117 l 20.378,11.07 -14.752,-11.238 c 0.943,-0.189 1.919,-0.291 2.918,-0.291 8.164,0 14.78,6.686 14.78,14.931 0,2.628 -0.671,5.097 -1.851,7.241 z"
           style="fill:#1e4697;fill-opacity:1;fill-rule:nonzero;stroke:none"
           id="path12490" />
      </g>
      <g
         id="g12492"
         transform="matrix(0.35277777,0,0,-0.35277777,110.93535,106.71902)"
         style="fill:#1e4697;fill-opacity:1">
        <path
           d="m 0,0 c -1.127,2.107 -1.763,4.518 -1.763,7.08 0,8.246 6.617,14.932 14.781,14.932 0.891,0 1.765,-0.079 2.613,-0.232 L 15.745,21.637 1.062,10.757 21.569,21.554 c -2.5,1.307 -5.499,2.118 -8.551,2.118 -9.645,0 -17.464,-7.43 -17.464,-16.592 0,-1.306 0.159,-2.576 0.459,-3.797 L -22.336,-10.873 -2.854,0.148 c 0.24,-0.494 0.503,-0.974 0.791,-1.439 l -12.146,-9.778 14.42,7.144 11.6,10.421 L 0,0"
           style="fill:#1e4697;fill-opacity:1;fill-rule:nonzero;stroke:none"
           id="path12494" />
      </g>
      <g
         id="g12496"
         transform="matrix(0.35277777,0,0,-0.35277777,108.92865,110.6708)"
         style="fill:#1e4697;fill-opacity:1">
        <path
           d="M 0,0 6.423,6.622 24.251,16.453 9.502,4.459 Z"
           style="fill:#1e4697;fill-opacity:1;fill-rule:nonzero;stroke:none"
           id="path12498" />
      </g>
      <g
         id="g12500"
         transform="matrix(0.35277777,0,0,-0.35277777,113.66864,103.43279)"
         style="fill:#1e4697;fill-opacity:1">
        <path
           d="M 0,0 14.483,11.666 23.725,15.861 17.5,9.503 Z"
           style="fill:#1e4697;fill-opacity:1;fill-rule:nonzero;stroke:none"
           id="path12502" />
      </g>
      <g
         id="g12560"
         transform="matrix(0.35277777,0,0,-0.35277777,130.30585,113.0608)"
         style="fill:#1e4697;fill-opacity:1">
        <path
           d="M 0,0 H -5.307 L -6.893,5.027 -8.501,0 h -5.251 l 4.245,-3.106 -1.696,-5.084 0.037,0.027 c 0.597,1.856 2.276,3.194 4.257,3.194 0.577,0 1.127,-0.116 1.634,-0.323 -0.976,0.656 -1.619,1.767 -1.619,3.032 0,1.164 0.545,2.202 1.394,2.871 l 0.022,-0.067 c -0.823,-0.658 -1.351,-1.67 -1.351,-2.804 0,-1.931 1.524,-3.506 3.434,-3.587 0.007,-0.022 0.015,-0.044 0.022,-0.066 -0.412,0.015 -0.806,0.102 -1.173,0.242 0.89,-0.575 1.571,-1.465 1.903,-2.521 l 0.04,-0.029 -1.698,5.094 z"
           style="fill:#1e4697;fill-opacity:1;fill-rule:nonzero;stroke:none"
           id="path12562" />
      </g>
      <path
         d="m 127.87504,114.8412 1.46085,1.08197 c -0.21343,-0.6283 -0.78599,-1.0788 -1.46085,-1.08197"
         style="fill:#1e4697;fill-opacity:1;fill-rule:nonzero;stroke:none;stroke-width:0.352778"
         id="path12566" />
      <path
         d="m 135.52661,103.6284 v 9.02899"
         style="fill:none;fill-opacity:1;stroke:#1e4697;stroke-width:0.288573;stroke-linecap:butt;stroke-linejoin:miter;stroke-miterlimit:10;stroke-dasharray:none;stroke-opacity:1"
         id="path17031" />
    </g>
  </g>
</svg>
