<?xml version="1.0" encoding="UTF-8" standalone="no"?>
<svg
   width="24.925234mm"
   height="24.898159mm"
   viewBox="0 0 24.925235 24.89816"
   version="1.1"
   id="svg13143"
   inkscape:version="1.2.2 (b0a8486, 2022-12-01)"
   sodipodi:docname="logo-orga-p23.svg"
   inkscape:export-filename="logo-orga-p23.png"
   inkscape:export-xdpi="72"
   inkscape:export-ydpi="72"
   xmlns:inkscape="http://www.inkscape.org/namespaces/inkscape"
   xmlns:sodipodi="http://sodipodi.sourceforge.net/DTD/sodipodi-0.dtd"
   xmlns="http://www.w3.org/2000/svg"
   xmlns:svg="http://www.w3.org/2000/svg"
   xmlns:rdf="http://www.w3.org/1999/02/22-rdf-syntax-ns#"
   xmlns:cc="http://creativecommons.org/ns#"
   xmlns:dc="http://purl.org/dc/elements/1.1/">
  <defs
     id="defs13137">
    <clipPath
       clipPathUnits="userSpaceOnUse"
       id="clipPath12378">
      <path
         d="m 209.023,754.989 h 174.529 v 58.23 H 209.023 Z"
         id="path12376" />
    </clipPath>
  </defs>
  <sodipodi:namedview
     id="base"
     pagecolor="#ffffff"
     bordercolor="#666666"
     borderopacity="1.0"
     inkscape:pageopacity="0.0"
     inkscape:pageshadow="2"
     inkscape:zoom="1.979899"
     inkscape:cx="34.092648"
     inkscape:cy="47.477169"
     inkscape:document-units="mm"
     inkscape:current-layer="layer1"
     inkscape:document-rotation="0"
     showgrid="false"
     fit-margin-top="0"
     fit-margin-left="0"
     fit-margin-right="0"
     fit-margin-bottom="0"
     inkscape:window-width="1686"
     inkscape:window-height="1114"
     inkscape:window-x="0"
     inkscape:window-y="25"
     inkscape:window-maximized="0"
     inkscape:showpageshadow="2"
     inkscape:pagecheckerboard="0"
     inkscape:deskcolor="#d1d1d1" />
  <metadata
     id="metadata13140">
    <rdf:RDF>
      <cc:Work
         rdf:about="">
        <dc:format>image/svg+xml</dc:format>
        <dc:type
           rdf:resource="http://purl.org/dc/dcmitype/StillImage" />
        <dc:title />
      </cc:Work>
    </rdf:RDF>
  </metadata>
  <g
     inkscape:label="Calque 1"
     inkscape:groupmode="layer"
     id="layer1"
     transform="translate(-103.05571,-85.772641)">
    <g
       id="g12488"
       transform="matrix(0.35277777,0,0,-0.35277777,115.911,103.89581)"
       style="fill:#1e4697;fill-opacity:1">
      <path
         d="M 0,0 11.601,10.095 25.432,17.043 14.024,7.404 c 0.244,-0.4 0.472,-0.81 0.678,-1.231 l 19.512,11 L 15.9,2.944 c 0.312,-1.242 0.476,-2.535 0.476,-3.867 0,-9.162 -7.818,-16.589 -17.462,-16.589 -3.104,0 -6.019,0.768 -8.544,2.117 l 20.378,11.07 -14.752,-11.238 c 0.943,-0.189 1.919,-0.291 2.918,-0.291 8.164,0 14.78,6.686 14.78,14.931 0,2.628 -0.671,5.097 -1.851,7.241 z"
         style="fill:#1e4697;fill-opacity:1;fill-rule:nonzero;stroke:none"
         id="path12490" />
    </g>
    <g
       id="g12492"
       transform="matrix(0.35277777,0,0,-0.35277777,110.93535,106.71902)"
       style="fill:#1e4697;fill-opacity:1">
      <path
         d="m 0,0 c -1.127,2.107 -1.763,4.518 -1.763,7.08 0,8.246 6.617,14.932 14.781,14.932 0.891,0 1.765,-0.079 2.613,-0.232 L 15.745,21.637 1.062,10.757 21.569,21.554 c -2.5,1.307 -5.499,2.118 -8.551,2.118 -9.645,0 -17.464,-7.43 -17.464,-16.592 0,-1.306 0.159,-2.576 0.459,-3.797 L -22.336,-10.873 -2.854,0.148 c 0.24,-0.494 0.503,-0.974 0.791,-1.439 l -12.146,-9.778 14.42,7.144 11.6,10.421 L 0,0"
         style="fill:#1e4697;fill-opacity:1;fill-rule:nonzero;stroke:none"
         id="path12494" />
    </g>
    <g
       id="g12496"
       transform="matrix(0.35277777,0,0,-0.35277777,108.92865,110.6708)"
       style="fill:#1e4697;fill-opacity:1">
      <path
         d="M 0,0 6.423,6.622 24.251,16.453 9.502,4.459 Z"
         style="fill:#1e4697;fill-opacity:1;fill-rule:nonzero;stroke:none"
         id="path12498" />
    </g>
    <g
       id="g12500"
       transform="matrix(0.35277777,0,0,-0.35277777,113.66864,103.43279)"
       style="fill:#1e4697;fill-opacity:1">
      <path
         d="M 0,0 14.483,11.666 23.725,15.861 17.5,9.503 Z"
         style="fill:#1e4697;fill-opacity:1;fill-rule:nonzero;stroke:none"
         id="path12502" />
    </g>
    <text
       xml:space="preserve"
       style="font-style:normal;font-variant:normal;font-weight:normal;font-stretch:normal;font-size:11.2889px;font-family:'Hiragino Maru Gothic ProN';-inkscape-font-specification:'Hiragino Maru Gothic ProN, Normal';font-variant-ligatures:normal;font-variant-caps:normal;font-variant-numeric:normal;font-variant-east-asian:normal;fill:#ff0000;fill-opacity:0.662116;stroke:#000000;stroke-width:0;stroke-linecap:round;stroke-dasharray:none;stroke-opacity:1"
       x="104.5257"
       y="94.657005"
       id="text3954"><tspan
         sodipodi:role="line"
         id="tspan3952"
         style="font-style:normal;font-variant:normal;font-weight:normal;font-stretch:normal;font-size:11.2889px;font-family:'Hiragino Maru Gothic ProN';-inkscape-font-specification:'Hiragino Maru Gothic ProN, Normal';font-variant-ligatures:normal;font-variant-caps:normal;font-variant-numeric:normal;font-variant-east-asian:normal;fill:#d40000;stroke-width:0"
         x="104.5257"
         y="94.657005">P23</tspan></text>
  </g>
</svg>
